<!-- Ãcono de Shopify -->
<svg width="20" height="21" fill="none" xmlns="http://www.w3.org/2000/svg">
  <path
    fill-rule="evenodd"
    clip-rule="evenodd"
    d="M8.571.038c0 .02-.073.038-.163.038-.09 0-.163.017-.163.037 0 .021-.055.038-.123.038C8.055.151 8 .168 8 .19c0 .02-.037.038-.082.038-.045 0-.081.017-.081.037 0 .021-.033.038-.073.038-.04 0-.099.034-.131.076-.033.041-.088.075-.123.075s-.09.034-.122.076c-.033.041-.083.075-.112.075-.064 0-.99.851-.99.91 0 .023-.055.09-.123.148-.067.058-.122.13-.122.158 0 .028-.037.076-.082.106-.045.03-.081.085-.081.122 0 .037-.019.067-.041.067-.023 0-.041.03-.041.067 0 .037-.037.092-.082.122-.045.03-.081.085-.081.122 0 .037-.019.067-.041.067-.023 0-.041.034-.041.075 0 .042-.018.076-.04.076-.023 0-.042.034-.042.075 0 .042-.018.076-.04.076-.023 0-.041.034-.041.075 0 .042-.019.076-.041.076-.023 0-.04.034-.04.076 0 .041-.02.075-.042.075-.022 0-.04.051-.04.113 0 .063-.019.114-.041.114-.023 0-.041.034-.041.075 0 .042-.019.076-.041.076-.022 0-.04.05-.04.113 0 .062-.02.113-.042.113-.022 0-.04.051-.04.114 0 .062-.019.113-.041.113-.023 0-.041.051-.041.113 0 .063-.018.114-.04.114-.023 0-.042.05-.042.113 0 .062-.018.113-.04.113-.023 0-.041.068-.041.151 0 .083-.019.151-.041.151-.023 0-.04.085-.04.19 0 .184-.004.188-.123.188-.068 0-.123.017-.123.038 0 .02-.055.038-.122.038-.068 0-.123.017-.123.037 0 .021-.055.038-.122.038-.068 0-.123.017-.123.038 0 .02-.073.038-.163.038-.09 0-.163.017-.163.038 0 .02-.055.037-.123.037-.067 0-.122.017-.122.038 0 .02-.055.038-.123.038-.067 0-.122.017-.122.038 0 .02-.055.037-.122.037-.068 0-.123.017-.123.038 0 .02-.055.038-.122.038-.068 0-.123.017-.123.038 0 .02-.073.037-.163.037-.09 0-.163.017-.163.038 0 .021-.037.038-.082.038-.045 0-.082.017-.082.038 0 .02-.028.038-.063.038-.099 0-.263.175-.263.281 0 .053-.018.096-.04.096-.024 0-.042.114-.042.265 0 .15-.017.264-.04.264-.024 0-.041.126-.041.302s-.017.302-.041.302-.041.126-.041.303c0 .176-.017.302-.04.302-.024 0-.042.113-.042.264 0 .151-.017.264-.04.264-.024 0-.041.126-.041.303 0 .176-.017.302-.041.302s-.04.126-.04.302-.018.302-.042.302c-.023 0-.04.126-.04.302 0 .177-.018.302-.041.302-.024 0-.041.114-.041.265 0 .15-.018.264-.041.264-.024 0-.04.126-.04.302 0 .177-.018.303-.042.303-.023 0-.04.125-.04.302 0 .176-.017.302-.041.302s-.041.113-.041.264c0 .151-.018.265-.04.265-.025 0-.042.126-.042.302s-.017.302-.04.302c-.024 0-.041.126-.041.302s-.017.302-.041.302-.04.126-.04.302c0 .177-.018.302-.042.302-.023 0-.04.114-.04.265 0 .151-.018.264-.041.264-.024 0-.041.126-.041.303 0 .176-.017.302-.041.302s-.04.125-.04.302c0 .176-.018.302-.042.302-.023 0-.04.126-.04.302s-.017.302-.041.302-.041.114-.041.265c0 .15-.018.264-.04.264-.025 0-.042.126-.042.302 0 .177-.017.302-.04.302-.024 0-.041.126-.041.302 0 .177-.017.303-.041.303-.023 0-.041.085-.041.189v.188h.204c.112 0 .204.017.204.038 0 .02.092.038.204.038.112 0 .204.017.204.038 0 .02.11.037.245.037.136 0 .245.017.245.038 0 .021.109.038.245.038s.245.017.245.038c0 .02.109.037.245.037s.245.017.245.038c0 .021.092.038.204.038.112 0 .204.017.204.038 0 .02.109.038.245.038s.245.016.245.037c0 .021.109.038.245.038s.244.017.244.038c0 .02.11.038.245.038.136 0 .245.016.245.037 0 .021.11.038.245.038.136 0 .245.017.245.038 0 .02.092.038.204.038.112 0 .204.017.204.037 0 .021.11.038.245.038.136 0 .245.017.245.038 0 .021.109.038.245.038s.245.017.245.038c0 .02.109.037.245.037s.245.017.245.038c0 .021.108.038.245.038.136 0 .244.017.244.038 0 .02.092.037.204.037.113 0 .205.017.205.038 0 .021.108.038.244.038.137 0 .245.017.245.038 0 .02.11.037.245.037.136 0 .245.017.245.038 0 .021.109.038.245.038s.245.017.245.038c0 .02.092.038.204.038.112 0 .204.017.204.037 0 .021.109.038.245.038s.245.017.245.038c0 .02.109.038.245.038s.245.017.245.037c0 .021.109.038.245.038s.244.017.244.038c0 .021.11.038.245.038.136 0 .245.017.245.037 0 .021.092.038.204.038.113 0 .205.017.205.038 0 .021.108.038.244.038s.245.017.245.038c0 .02.11.037.245.037.136 0 .245.017.245.038 0 .021.109.038.245.038s.245.017.245.038c0 .02.092.037.204.037.112 0 .204.018.204.038 0 .021.073.038.163.038h.164v-9.237c0-7.956-.008-9.245-.059-9.292-.067-.062-.186-.072-.186-.016 0 .02-.055.038-.123.038-.067 0-.122.017-.122.038 0 .02-.055.037-.123.037-.067 0-.122.017-.122.038 0 .02-.037.038-.082.038-.054 0-.081-.025-.081-.076 0-.041-.019-.075-.041-.075-.023 0-.041-.051-.041-.113 0-.063-.018-.114-.04-.114-.023 0-.042-.034-.042-.075 0-.042-.018-.076-.04-.076-.023 0-.041-.034-.041-.075 0-.042-.019-.076-.041-.076-.023 0-.04-.034-.04-.076 0-.041-.02-.075-.042-.075-.022 0-.04-.03-.04-.067 0-.037-.037-.092-.082-.122-.045-.03-.082-.076-.082-.103 0-.069-.597-.615-.673-.615-.034 0-.061-.017-.061-.037 0-.021-.037-.038-.082-.038-.045 0-.082-.017-.082-.038 0-.02-.037-.038-.081-.038-.045 0-.082-.017-.082-.037 0-.021-.073-.038-.163-.038-.09 0-.164-.017-.164-.038 0-.021-.117-.038-.269-.038-.247 0-.279-.01-.384-.113-.063-.062-.14-.113-.17-.113-.031 0-.083-.034-.115-.076C10.049.261 9.99.227 9.95.227c-.04 0-.072-.017-.072-.038 0-.02-.037-.038-.082-.038-.045 0-.082-.017-.082-.038 0-.02-.055-.037-.122-.037-.068 0-.123-.017-.123-.038C9.47.015 9.293 0 9.02 0c-.272 0-.449.015-.449.038zm.572.68c0 .02.065.037.146.037.08 0 .173.026.207.057.054.05.054.063 0 .113a.213.213 0 01-.117.057c-.03 0-.081.034-.114.076-.032.041-.082.075-.112.075-.064 0-.5.397-.5.456 0 .024-.055.09-.122.148-.068.059-.123.13-.123.158 0 .029-.037.077-.081.107-.045.03-.082.08-.082.113 0 .032-.037.083-.082.113-.045.03-.081.085-.081.122 0 .037-.019.067-.041.067-.023 0-.041.034-.041.076 0 .041-.018.075-.04.075-.023 0-.042.034-.042.076 0 .041-.018.075-.04.075-.023 0-.041.034-.041.076 0 .042-.019.075-.041.075-.023 0-.04.034-.04.076 0 .042-.02.076-.042.076-.022 0-.04.05-.04.113 0 .062-.019.113-.041.113-.023 0-.041.051-.041.114 0 .062-.019.113-.041.113-.022 0-.04.05-.04.113 0 .062-.02.113-.042.113-.022 0-.04.068-.04.152 0 .083-.019.15-.041.15-.023 0-.041.044-.041.098 0 .124-.088.205-.222.205-.057 0-.105.017-.105.038 0 .02-.055.037-.122.037s-.122.017-.122.038c0 .02-.056.038-.123.038s-.122.017-.122.038c0 .02-.055.037-.123.037-.067 0-.122.017-.122.038 0 .02-.055.038-.123.038-.067 0-.122.017-.122.038 0 .02-.074.037-.163.037-.09 0-.164.017-.164.038 0 .021-.055.038-.122.038-.109 0-.123-.013-.123-.113 0-.063.019-.114.041-.114.023 0 .041-.05.041-.113 0-.062.018-.113.04-.113.023 0 .042-.051.042-.114 0-.062.018-.113.04-.113.023 0 .041-.05.041-.113 0-.062.019-.113.041-.113.023 0 .04-.034.04-.076 0-.042.02-.076.042-.076.022 0 .04-.05.04-.113 0-.062.019-.113.041-.113.023 0 .041-.034.041-.076 0-.041.019-.075.041-.075.022 0 .04-.034.04-.076 0-.041.02-.075.042-.075.022 0 .04-.034.04-.076 0-.041.019-.075.041-.075.023 0 .041-.034.041-.076 0-.042.018-.076.04-.076.023 0 .042-.03.042-.067 0-.037.036-.091.081-.121.045-.03.082-.085.082-.122 0-.037.018-.067.04-.067.023 0 .042-.027.042-.06 0-.034.055-.109.122-.167.067-.058.123-.126.123-.15 0-.026.055-.094.122-.152.067-.058.122-.125.122-.148 0-.059.6-.607.664-.607.03 0 .08-.034.112-.076.032-.041.087-.075.122-.075s.09-.034.123-.076c.032-.042.091-.076.131-.076.04 0 .073-.017.073-.037 0-.021.055-.038.122-.038.068 0 .123-.017.123-.038 0-.02.092-.038.204-.038.112 0 .204-.017.204-.037 0-.021.055-.038.122-.038.068 0 .123.017.123.038zm1.959.68c0 .02.037.037.082.037.045 0 .081.017.081.038 0 .02.028.038.063.038.076 0 .427.318.427.387 0 .027.037.074.082.104.045.03.081.084.081.121 0 .037.019.068.041.068.023 0 .041.034.041.075 0 .042.018.076.04.076.023 0 .042.034.042.075 0 .042.018.076.04.076.023 0 .041.034.041.075 0 .042.019.076.041.076.022 0 .04.05.04.113 0 .088-.017.113-.08.113-.046 0-.082.018-.082.038 0 .021-.056.038-.123.038s-.122.017-.122.038c0 .02-.074.038-.163.038-.09 0-.164.017-.164.037 0 .021-.073.038-.163.038h-.163v-.415c0-.252-.016-.416-.041-.416-.023 0-.041-.1-.041-.226s-.018-.227-.04-.227c-.023 0-.042-.051-.042-.113 0-.063-.018-.114-.04-.114-.023 0-.041-.05-.041-.113 0-.088.018-.113.081-.113.045 0 .082.017.082.037zm-.956.091c.032.03.058.098.058.151 0 .054.018.097.04.097.023 0 .042.068.042.151 0 .084.018.152.04.152.023 0 .041.1.041.226s.018.227.041.227c.025 0 .041.176.041.453v.453h-.123c-.067 0-.122.017-.122.038 0 .02-.055.038-.122.038-.068 0-.123.017-.123.038 0 .02-.055.037-.122.037-.068 0-.123.017-.123.038 0 .02-.055.038-.122.038-.068 0-.123.017-.123.038 0 .02-.073.037-.163.037-.09 0-.163.017-.163.038 0 .021-.055.038-.123.038-.067 0-.122.017-.122.038 0 .02-.055.038-.122.038-.068 0-.123.017-.123.037 0 .021-.055.038-.122.038-.068 0-.123.017-.123.038 0 .02-.055.038-.122.038-.068 0-.123-.017-.123-.038 0-.021.019-.038.041-.038.023 0 .04-.068.04-.151 0-.083.02-.151.042-.151.022 0 .04-.034.04-.076 0-.041.019-.075.041-.075.023 0 .041-.051.041-.113 0-.063.019-.114.041-.114.022 0 .04-.034.04-.075 0-.042.02-.076.042-.076.022 0 .04-.034.04-.075 0-.042.019-.076.041-.076.023 0 .041-.034.041-.076 0-.041.018-.075.04-.075.023 0 .042-.034.042-.076 0-.041.018-.075.04-.075.023 0 .041-.03.041-.067 0-.037.037-.092.082-.122.045-.03.082-.077.082-.106 0-.028.073-.116.163-.196.09-.08.163-.165.163-.189 0-.056.103-.151.164-.151.025 0 .117-.068.203-.151.087-.083.186-.151.222-.151.035 0 .064-.017.064-.038 0-.056.12-.046.187.016zm4.14 10.295v9.14h.122c.068 0 .123-.017.123-.037 0-.021.073-.038.163-.038.09 0 .163-.017.163-.038 0-.02.074-.038.163-.038.09 0 .164-.017.164-.037 0-.021.091-.038.204-.038.112 0 .204-.017.204-.038 0-.02.073-.038.163-.038.09 0 .163-.017.163-.038 0-.02.074-.037.164-.037.09 0 .163-.017.163-.038 0-.02.073-.038.163-.038.09 0 .163-.017.163-.038 0-.02.074-.037.164-.037.09 0 .163-.017.163-.038 0-.02.073-.038.163-.038.09 0 .163-.017.163-.038 0-.02.074-.037.164-.037.09 0 .163-.017.163-.038 0-.02.074-.038.163-.038.09 0 .164-.017.164-.038 0-.02.073-.038.163-.038.09 0 .163-.017.163-.037 0-.021.074-.038.163-.038.09 0 .164-.017.164-.038 0-.02.073-.038.163-.038.09 0 .163-.017.163-.037 0-.021.074-.038.163-.038.09 0 .164-.017.164-.038 0-.02.073-.038.163-.038.09 0 .163-.017.163-.037 0-.021.074-.038.163-.038.09 0 .164-.017.164-.038 0-.02.037-.038.081-.038.075 0 .082-.025.082-.302 0-.176-.017-.302-.04-.302-.024 0-.042-.1-.042-.227 0-.126-.018-.226-.04-.226-.024 0-.041-.114-.041-.265 0-.15-.018-.264-.041-.264-.023 0-.04-.113-.04-.264 0-.151-.018-.265-.042-.265-.023 0-.04-.113-.04-.264 0-.151-.018-.265-.041-.265-.023 0-.041-.1-.041-.226s-.018-.227-.041-.227c-.023 0-.04-.113-.04-.264 0-.151-.018-.265-.042-.265-.023 0-.04-.113-.04-.264 0-.151-.018-.264-.041-.264-.024 0-.041-.114-.041-.265 0-.15-.018-.264-.04-.264-.024 0-.042-.1-.042-.227 0-.126-.018-.226-.04-.226-.024 0-.041-.114-.041-.265 0-.15-.018-.264-.041-.264-.023 0-.041-.114-.041-.265 0-.15-.018-.264-.04-.264-.024 0-.042-.113-.042-.264 0-.151-.017-.265-.04-.265s-.041-.1-.041-.226-.018-.227-.041-.227c-.023 0-.04-.113-.04-.264 0-.151-.018-.265-.042-.265-.023 0-.04-.113-.04-.264 0-.151-.018-.264-.041-.264-.024 0-.041-.114-.041-.265 0-.151-.018-.264-.04-.264-.024 0-.042-.114-.042-.265 0-.15-.017-.264-.04-.264s-.041-.1-.041-.227c0-.126-.018-.226-.041-.226-.023 0-.041-.114-.041-.265 0-.15-.018-.264-.04-.264-.024 0-.042-.113-.042-.264 0-.152-.017-.265-.04-.265-.024 0-.041-.113-.041-.264 0-.151-.018-.265-.041-.265-.023 0-.04-.1-.04-.226s-.019-.227-.042-.227c-.023 0-.04-.113-.04-.264 0-.151-.018-.265-.041-.265-.024 0-.041-.113-.041-.264 0-.151-.018-.264-.041-.264-.023 0-.04-.114-.04-.265 0-.15-.018-.264-.042-.264-.022 0-.04-.1-.04-.227 0-.126-.019-.226-.041-.226-.024 0-.041-.114-.041-.265 0-.15-.018-.264-.04-.264-.024 0-.042-.114-.042-.265 0-.15-.017-.264-.04-.264-.024 0-.041-.113-.041-.264 0-.151-.018-.265-.041-.265-.023 0-.041-.068-.041-.15 0-.127-.014-.152-.082-.152-.045 0-.081-.017-.081-.038 0-.024-.32-.037-.879-.037h-.878l-.651-.605c-.359-.332-.661-.604-.673-.604-.012 0-.021 4.113-.021 9.14zM9.959 6.61c0 .02.074.037.163.037.09 0 .164.017.164.038 0 .021.047.038.105.038.119 0 .274.116.19.142-.029.009-.05.08-.05.163 0 .082-.019.148-.041.148-.023 0-.041.068-.041.151 0 .083-.018.151-.04.151-.023 0-.042.051-.042.114 0 .062-.018.113-.04.113-.023 0-.041.068-.041.151 0 .083-.019.151-.041.151-.023 0-.04.068-.04.151 0 .083-.02.151-.042.151-.022 0-.04.068-.04.151 0 .084-.019.152-.041.152-.023 0-.041.05-.041.113 0 .062-.019.113-.041.113-.022 0-.04.068-.04.151v.151h-.164c-.09 0-.163-.017-.163-.037 0-.021-.055-.038-.123-.038-.067 0-.122-.017-.122-.038 0-.02-.074-.038-.164-.038-.09 0-.163-.017-.163-.038 0-.023-.231-.037-.612-.037s-.612.014-.612.037c0 .021-.055.038-.123.038-.067 0-.122.017-.122.038 0 .02-.051.038-.114.038a.23.23 0 00-.172.075c-.032.042-.084.076-.114.076-.075 0-.172.094-.172.167 0 .033-.018.06-.04.06-.023 0-.041.033-.041.075 0 .042-.019.076-.041.076-.024 0-.04.135-.04.331 0 .288.01.339.08.386.046.03.082.077.082.105 0 .061.183.235.247.235.026 0 .099.051.162.113.062.063.14.114.17.114.031 0 .083.034.115.075.033.042.088.076.123.076s.09.034.122.075c.033.042.092.076.132.076.04 0 .072.017.072.038 0 .02.03.037.066.037.035 0 .116.051.18.114.062.062.136.113.162.113.027 0 .1.051.164.113.063.063.135.114.16.114.063 0 .656.554.656.614 0 .027.037.073.082.103.045.03.081.085.081.122 0 .037.019.067.041.067.023 0 .04.034.04.076 0 .041.02.075.042.075.022 0 .04.034.04.076 0 .041.019.075.041.075.023 0 .041.034.041.076 0 .041.019.075.041.075.022 0 .04.068.04.151 0 .084.02.152.042.152.023 0 .04.113.04.264 0 .151.018.264.041.264.024 0 .041.114.041.265 0 .15-.017.264-.04.264-.024 0-.042.126-.042.302s-.017.302-.04.302-.041.068-.041.152c0 .083-.019.15-.041.15-.022 0-.04.034-.04.076 0 .042-.02.076-.042.076-.022 0-.04.05-.04.113 0 .062-.019.113-.041.113-.023 0-.041.034-.041.076 0 .041-.018.075-.04.075-.023 0-.042.03-.042.068 0 .037-.036.091-.081.121-.045.03-.082.077-.082.104 0 .063-.595.614-.664.614-.029 0-.08.034-.111.075-.033.042-.088.076-.123.076s-.09.034-.122.075a.23.23 0 01-.173.076c-.062 0-.113.017-.113.038 0 .02-.037.038-.082.038-.045 0-.081.017-.081.037 0 .021-.055.038-.123.038-.067 0-.122.017-.122.038 0 .021-.123.038-.286.038-.163 0-.286.016-.286.037 0 .023-.177.038-.449.038s-.449-.015-.449-.038c0-.021-.122-.037-.285-.037-.164 0-.286-.017-.286-.038 0-.021-.074-.038-.163-.038-.09 0-.164-.017-.164-.038 0-.02-.055-.037-.122-.037s-.123-.017-.123-.038c0-.021-.036-.038-.081-.038-.045 0-.082-.017-.082-.038 0-.02-.055-.038-.122-.038-.068 0-.123-.017-.123-.037 0-.021-.032-.038-.072-.038-.04 0-.1-.034-.132-.076-.032-.041-.091-.075-.131-.075-.04 0-.073-.017-.073-.038 0-.02-.033-.038-.072-.038-.04 0-.1-.034-.132-.075-.032-.042-.083-.076-.112-.076-.096 0-.337-.256-.337-.357 0-.053.018-.096.04-.096.023 0 .042-.068.042-.151 0-.083.018-.151.04-.151.023 0 .041-.085.041-.19 0-.103.019-.188.041-.188.023 0 .041-.068.041-.151 0-.083.018-.151.04-.151.023 0 .042-.068.042-.151 0-.083.018-.151.04-.151.023 0 .041-.068.041-.151 0-.126.014-.151.082-.151.045 0 .082.017.082.037 0 .021.032.038.072.038.04 0 .1.034.132.076.032.041.091.075.131.075.04 0 .073.017.073.038 0 .02.036.038.081.038.045 0 .082.017.082.038 0 .02.037.037.082.037.044 0 .081.017.081.038 0 .02.037.038.082.038.045 0 .081.017.081.038 0 .02.056.037.123.037s.122.017.122.038c0 .02.055.038.123.038.067 0 .122.017.122.038 0 .02.074.037.164.037.09 0 .163.018.163.038 0 .022.122.038.286.038.163 0 .285-.016.285-.038 0-.02.047-.037.103-.037.116 0 .469-.299.469-.396 0-.032.018-.058.04-.058.025 0 .041-.138.041-.34 0-.201-.016-.34-.04-.34-.023 0-.041-.034-.041-.075 0-.042-.019-.076-.041-.076-.023 0-.041-.025-.041-.057 0-.07-.671-.698-.745-.698-.03 0-.08-.034-.112-.076-.032-.041-.084-.075-.115-.075s-.108-.051-.17-.114c-.064-.062-.136-.113-.16-.113-.064 0-.82-.706-.82-.765 0-.027-.037-.074-.082-.103-.045-.03-.082-.085-.082-.122 0-.037-.018-.067-.04-.067-.023 0-.041-.051-.041-.114 0-.062-.019-.113-.041-.113-.023 0-.04-.051-.04-.113 0-.063-.02-.114-.042-.114-.022 0-.04-.085-.04-.189 0-.103-.019-.188-.041-.188-.025 0-.041-.177-.041-.454 0-.276.016-.453.04-.453.023 0 .041-.1.041-.226s.019-.227.041-.227c.023 0 .041-.068.041-.151 0-.083.018-.151.04-.151.023 0 .042-.034.042-.076 0-.041.018-.075.04-.075.023 0 .041-.051.041-.114 0-.062.019-.113.041-.113.023 0 .041-.034.041-.075 0-.042.018-.076.04-.076.023 0 .042-.03.042-.067 0-.037.036-.092.081-.122.045-.03.082-.08.082-.113 0-.032.037-.083.081-.113.045-.03.082-.077.082-.104 0-.063.759-.765.827-.765.03 0 .08-.034.112-.076.032-.041.091-.075.131-.075.04 0 .073-.017.073-.038 0-.02.037-.038.082-.038.045 0 .081-.017.081-.038 0-.02.037-.037.082-.037.045 0 .082-.017.082-.038 0-.02.036-.038.081-.038.045 0 .082-.017.082-.038 0-.02.037-.037.081-.037.045 0 .082-.017.082-.038 0-.02.055-.038.122-.038.068 0 .123-.017.123-.038 0-.02.055-.037.122-.037.068 0 .123-.017.123-.038 0-.021.073-.038.163-.038.09 0 .163-.017.163-.038 0-.02.11-.038.245-.038.136 0 .245-.016.245-.037 0-.024.286-.038.776-.038.49 0 .775.014.775.038z"
    fill="currentColor"
  />
</svg>