<!-- Ãcono de Wordpress -->
<svg width="22" height="22" fill="none" xmlns="http://www.w3.org/2000/svg">
  <path
    fill-rule="evenodd"
    clip-rule="evenodd"
    d="M9.828.033c0 .019-.108.032-.26.032-.152 0-.26.014-.26.033 0 .018-.074.032-.163.032-.09 0-.163.015-.163.033 0 .018-.073.032-.162.032-.09 0-.163.015-.163.033 0 .018-.073.032-.163.032-.09 0-.163.015-.163.033 0 .018-.058.032-.13.032-.071 0-.13.015-.13.033 0 .018-.044.033-.098.033-.053 0-.097.014-.097.032 0 .018-.044.033-.098.033-.054 0-.098.014-.098.032 0 .018-.043.033-.097.033-.054 0-.098.014-.098.032 0 .018-.044.033-.097.033-.054 0-.098.014-.098.032 0 .018-.044.033-.098.033-.053 0-.097.015-.097.032 0 .018-.044.033-.098.033-.054 0-.098.015-.098.033 0 .017-.029.032-.065.032-.035 0-.065.015-.065.033 0 .018-.03.032-.065.032-.036 0-.065.015-.065.033 0 .018-.044.032-.098.032-.053 0-.097.015-.097.033 0 .018-.03.032-.065.032-.036 0-.065.015-.065.033 0 .018-.03.032-.065.032-.036 0-.066.015-.066.033 0 .018-.029.033-.065.033-.035 0-.065.014-.065.032 0 .018-.029.033-.065.033-.036 0-.065.014-.065.032 0 .018-.03.033-.065.033-.036 0-.065.014-.065.032 0 .018-.026.033-.058.033s-.079.03-.105.065c-.026.036-.073.065-.105.065-.031 0-.058.015-.058.032 0 .018-.029.033-.065.033-.035 0-.065.015-.065.033 0 .017-.026.032-.058.032-.031 0-.079.03-.104.065-.026.036-.07.065-.098.065-.028 0-.072.03-.098.065-.026.036-.07.065-.097.065-.028 0-.072.03-.098.066-.026.035-.067.065-.092.065-.024 0-.086.044-.136.097-.05.054-.109.098-.13.098-.021 0-.08.044-.13.098-.05.053-.108.097-.13.097-.02 0-.108.073-.196.163-.087.09-.174.163-.193.163-.046 0-1.108 1.062-1.108 1.108 0 .02-.074.106-.163.193-.09.088-.163.176-.163.197 0 .02-.044.079-.097.129-.054.05-.098.109-.098.13 0 .021-.044.08-.098.13-.053.05-.097.112-.097.136 0 .025-.03.066-.065.092-.036.026-.066.07-.066.098 0 .028-.029.071-.065.097-.035.026-.065.07-.065.098 0 .028-.029.072-.065.098-.036.025-.065.073-.065.104 0 .032-.015.058-.032.058-.018 0-.033.03-.033.065 0 .036-.015.065-.033.065-.017 0-.032.027-.032.058 0 .032-.03.08-.065.105-.036.026-.065.073-.065.105s-.015.058-.033.058c-.018 0-.032.03-.032.065 0 .036-.015.065-.033.065-.018 0-.032.03-.032.065 0 .036-.015.065-.033.065-.018 0-.032.03-.032.065 0 .036-.015.065-.033.065-.018 0-.033.03-.033.066 0 .035-.014.065-.032.065-.018 0-.033.029-.033.065 0 .036-.014.065-.032.065-.018 0-.033.03-.033.065 0 .036-.014.065-.032.065-.018 0-.033.044-.033.098 0 .053-.014.097-.032.097-.018 0-.033.03-.033.065 0 .036-.015.065-.032.065-.018 0-.033.044-.033.098 0 .054-.015.098-.033.098-.017 0-.032.044-.032.097 0 .054-.015.098-.033.098-.018 0-.032.03-.032.065 0 .036-.015.065-.033.065-.018 0-.032.044-.032.098 0 .053-.015.097-.033.097-.018 0-.032.059-.032.13 0 .072-.015.13-.033.13-.018 0-.032.045-.032.098 0 .054-.015.098-.033.098-.018 0-.033.059-.033.13 0 .072-.014.13-.032.13-.018 0-.033.059-.033.13 0 .072-.014.13-.032.13-.018 0-.033.074-.033.163 0 .09-.014.163-.032.163-.018 0-.033.087-.033.195 0 .109-.014.196-.032.196-.02 0-.033.108-.033.26 0 .152-.013.26-.032.26C.01 9.828 0 10.241 0 11c0 .76.011 1.172.033 1.172.019 0 .032.108.032.26 0 .152.014.26.033.26.018 0 .032.087.032.196 0 .108.015.195.033.195.018 0 .032.073.032.163 0 .09.015.162.033.162.018 0 .032.059.032.13 0 .072.015.13.033.13.018 0 .032.06.032.13 0 .072.015.131.033.131.018 0 .033.044.033.098 0 .053.014.097.032.097.018 0 .033.059.033.13 0 .072.014.13.032.13.018 0 .033.03.033.066 0 .036.014.065.032.065.018 0 .033.044.033.097 0 .054.014.098.032.098.018 0 .033.044.033.098 0 .053.015.097.032.097.018 0 .033.044.033.098 0 .054.015.098.033.098.017 0 .032.029.032.065 0 .035.015.065.033.065.018 0 .032.03.032.065 0 .036.015.065.033.065.018 0 .032.044.032.098 0 .053.015.097.033.097.018 0 .032.03.032.065 0 .036.015.065.033.065.018 0 .032.03.032.066 0 .035.015.065.033.065.018 0 .033.029.033.065 0 .036.014.065.032.065.018 0 .033.029.033.065 0 .036.014.065.032.065.018 0 .033.03.033.065 0 .036.014.065.032.065.018 0 .033.026.033.058s.03.079.065.105c.036.026.065.073.065.105 0 .031.015.057.032.057.018 0 .033.03.033.066 0 .035.015.065.033.065.017 0 .032.026.032.058s.03.079.065.104c.036.026.065.07.065.098 0 .028.03.072.065.098.036.026.065.07.065.097 0 .028.03.072.066.098.035.026.065.067.065.092 0 .024.044.086.097.136.054.05.098.108.098.13 0 .021.044.08.098.13.053.05.097.108.097.13 0 .02.073.108.163.196.09.087.163.174.163.193 0 .046 1.062 1.108 1.108 1.108.02 0 .106.074.193.163.088.09.176.163.197.163.02 0 .079.044.129.097.05.054.109.098.13.098.021 0 .08.044.13.098.05.053.112.097.136.097.025 0 .066.03.092.065.026.036.07.066.098.066.028 0 .071.029.097.065.026.035.07.065.098.065.028 0 .072.029.098.065.025.036.073.065.104.065.032 0 .058.015.058.032 0 .018.03.033.065.033.036 0 .065.015.065.032 0 .018.027.033.058.033.032 0 .08.03.105.065.026.036.073.065.105.065s.058.015.058.033c0 .018.03.032.065.032.036 0 .065.015.065.033 0 .018.03.032.065.032.036 0 .065.015.065.033 0 .018.03.032.065.032.036 0 .065.015.065.033 0 .018.03.033.066.033.035 0 .065.014.065.032 0 .018.029.033.065.033.036 0 .065.014.065.032 0 .018.044.033.097.033.054 0 .098.014.098.032 0 .018.03.033.065.033.036 0 .065.015.065.032 0 .018.044.033.098.033.054 0 .098.015.098.032 0 .018.029.033.065.033.035 0 .065.015.065.033 0 .017.044.032.097.032.054 0 .098.015.098.033 0 .018.044.032.098.032.053 0 .097.015.097.033 0 .018.044.032.098.032.054 0 .097.015.097.033 0 .018.044.032.098.032.054 0 .098.015.098.033 0 .018.058.032.13.032.072 0 .13.015.13.033 0 .018.044.033.098.033.053 0 .097.014.097.032 0 .018.074.033.163.033.09 0 .163.014.163.032 0 .018.073.033.163.033.089 0 .162.014.162.032 0 .018.073.033.163.033.09 0 .163.014.163.032 0 .02.108.033.26.033.152 0 .26.014.26.033 0 .02.413.032 1.172.032.76 0 1.172-.012 1.172-.032s.097-.033.227-.033.228-.014.228-.033c0-.018.087-.032.195-.032.109 0 .196-.015.196-.033 0-.018.073-.032.162-.032.09 0 .163-.015.163-.033 0-.018.059-.032.13-.032.072 0 .13-.015.13-.033 0-.018.06-.032.13-.032.072 0 .13-.015.13-.033 0-.018.06-.032.131-.032.072 0 .13-.015.13-.033 0-.018.044-.033.098-.033.054 0 .098-.014.098-.032 0-.018.043-.033.097-.033.054 0 .098-.014.098-.032 0-.018.044-.033.097-.033.054 0 .098-.014.098-.032 0-.018.044-.033.098-.033.053 0 .097-.015.097-.032 0-.018.03-.033.065-.033.036 0 .066-.015.066-.032 0-.018.043-.033.097-.033.054 0 .098-.015.098-.033 0-.017.03-.032.065-.032.036 0 .065-.015.065-.033 0-.018.03-.032.065-.032.036 0 .065-.015.065-.033 0-.018.044-.032.098-.032.053 0 .097-.015.097-.033 0-.018.03-.032.066-.032.035 0 .065-.015.065-.033 0-.018.029-.032.065-.032.036 0 .065-.015.065-.033 0-.018.029-.033.065-.033.036 0 .065-.014.065-.032 0-.018.026-.033.058-.033s.079-.029.105-.065c.026-.036.073-.065.105-.065.031 0 .057-.014.057-.032 0-.018.03-.033.066-.033.035 0 .064-.015.064-.033 0-.017.027-.032.058-.032.032 0 .08-.03.105-.065.026-.036.073-.065.105-.065s.058-.015.058-.033c0-.018.026-.032.058-.032s.079-.03.105-.065c.026-.036.067-.066.091-.066.025 0 .086-.043.137-.097.05-.054.11-.098.136-.098.024 0 .066-.029.091-.065.026-.036.067-.065.091-.065.025 0 .1-.058.17-.13.069-.072.142-.13.162-.13.02 0 .108-.073.196-.163.087-.09.174-.163.193-.163.046 0 .978-.932.978-.978 0-.02.074-.106.163-.193.09-.087.163-.176.163-.196 0-.02.058-.094.13-.162.072-.07.13-.145.13-.17 0-.024.03-.065.065-.09.036-.026.065-.068.065-.092 0-.025.044-.086.098-.137.054-.05.098-.114.098-.143 0-.028.014-.052.032-.052.018 0 .033-.026.033-.058s.029-.079.065-.105c.035-.025.065-.07.065-.097 0-.028.03-.072.065-.098.036-.026.065-.073.065-.105 0-.031.015-.058.032-.058.018 0 .033-.029.033-.064 0-.036.015-.066.033-.066.018 0 .032-.026.032-.058 0-.031.03-.079.065-.104.036-.026.065-.073.065-.105s.015-.058.033-.058c.018 0 .032-.03.032-.065 0-.036.015-.065.033-.065.018 0 .032-.03.032-.065 0-.036.015-.065.033-.065.018 0 .033-.03.033-.066 0-.035.014-.065.032-.065.018 0 .033-.043.033-.097 0-.054.014-.098.032-.098.018 0 .033-.03.033-.065 0-.036.014-.065.032-.065.018 0 .033-.03.033-.065 0-.036.015-.065.032-.065.018 0 .033-.044.033-.098 0-.054.015-.097.032-.097.018 0 .033-.03.033-.066 0-.035.015-.065.033-.065.017 0 .032-.044.032-.097 0-.054.015-.098.033-.098.018 0 .032-.044.032-.098 0-.053.015-.097.033-.097.018 0 .032-.044.032-.098 0-.053.015-.098.033-.098.018 0 .032-.043.032-.097 0-.054.015-.098.033-.098.018 0 .032-.058.032-.13 0-.072.015-.13.033-.13.018 0 .033-.059.033-.13 0-.072.014-.13.032-.13.018 0 .033-.059.033-.13 0-.072.014-.13.032-.13.018 0 .033-.074.033-.163 0-.09.014-.163.032-.163.018 0 .033-.087.033-.196 0-.108.014-.195.032-.195.02 0 .033-.108.033-.26 0-.152.014-.26.033-.26.02 0 .032-.391.032-1.107s-.012-1.107-.032-1.107-.033-.108-.033-.26c0-.152-.014-.26-.033-.26-.018 0-.032-.087-.032-.195 0-.109-.015-.196-.033-.196-.018 0-.032-.073-.032-.162 0-.09-.015-.163-.033-.163-.018 0-.032-.059-.032-.13 0-.072-.015-.13-.033-.13-.018 0-.032-.06-.032-.13 0-.072-.015-.13-.033-.13-.018 0-.032-.06-.032-.131 0-.072-.015-.13-.033-.13-.018 0-.033-.044-.033-.098 0-.054-.014-.098-.032-.098-.018 0-.033-.043-.033-.097 0-.054-.014-.098-.032-.098-.018 0-.033-.044-.033-.097 0-.054-.014-.098-.032-.098-.018 0-.033-.044-.033-.098 0-.053-.015-.097-.032-.097-.018 0-.033-.03-.033-.065 0-.036-.015-.066-.032-.066-.018 0-.033-.043-.033-.097 0-.054-.015-.098-.033-.098-.017 0-.032-.03-.032-.065 0-.036-.015-.065-.033-.065-.018 0-.032-.03-.032-.065 0-.036-.015-.065-.033-.065-.018 0-.032-.044-.032-.098 0-.053-.015-.097-.033-.097-.018 0-.032-.03-.032-.065 0-.036-.015-.066-.033-.066-.018 0-.032-.029-.032-.065 0-.035-.015-.065-.033-.065-.018 0-.033-.029-.033-.065 0-.036-.014-.065-.032-.065-.018 0-.033-.026-.033-.058s-.029-.079-.065-.105c-.036-.025-.065-.073-.065-.104 0-.032-.014-.058-.032-.058-.018 0-.033-.03-.033-.065 0-.036-.015-.066-.033-.066-.017 0-.032-.026-.032-.057 0-.032-.03-.08-.065-.105-.036-.026-.065-.073-.065-.105s-.015-.058-.033-.058c-.018 0-.032-.026-.032-.058s-.03-.079-.065-.105c-.036-.026-.066-.067-.066-.091 0-.025-.043-.086-.097-.137-.054-.05-.098-.11-.098-.136 0-.024-.029-.066-.065-.091-.036-.026-.065-.067-.065-.091 0-.025-.058-.1-.13-.17-.072-.068-.13-.142-.13-.162 0-.02-.073-.108-.163-.196-.09-.087-.163-.174-.163-.193 0-.046-.932-.978-.978-.978-.02 0-.106-.074-.193-.163-.087-.09-.176-.163-.196-.163-.02 0-.094-.058-.162-.13-.07-.071-.145-.13-.17-.13-.024 0-.065-.03-.09-.065-.026-.036-.068-.065-.092-.065-.025 0-.086-.044-.137-.098-.05-.054-.11-.098-.136-.098-.024 0-.065-.029-.091-.065-.026-.035-.073-.065-.105-.065s-.058-.014-.058-.032c0-.018-.026-.033-.058-.033s-.079-.03-.105-.065c-.026-.036-.073-.065-.105-.065-.031 0-.058-.015-.058-.033 0-.017-.026-.032-.057-.032-.032 0-.08-.03-.105-.065-.026-.036-.073-.065-.105-.065s-.058-.015-.058-.033c0-.018-.03-.032-.065-.032-.036 0-.065-.015-.065-.033 0-.018-.03-.032-.065-.032-.036 0-.065-.015-.065-.033 0-.018-.03-.032-.065-.032-.036 0-.065-.015-.065-.033 0-.018-.03-.033-.066-.033-.035 0-.065-.014-.065-.032 0-.018-.043-.033-.097-.033-.054 0-.098-.014-.098-.032 0-.018-.03-.033-.065-.033-.036 0-.065-.014-.065-.032 0-.018-.03-.033-.065-.033-.036 0-.065-.014-.065-.032 0-.018-.044-.033-.098-.033-.054 0-.097-.015-.097-.032 0-.018-.03-.033-.066-.033-.035 0-.065-.015-.065-.033 0-.017-.044-.032-.097-.032-.054 0-.098-.015-.098-.033 0-.018-.044-.032-.098-.032-.053 0-.097-.015-.097-.033 0-.018-.044-.032-.098-.032-.053 0-.098-.015-.098-.033 0-.018-.043-.032-.097-.032-.054 0-.098-.015-.098-.033 0-.018-.058-.032-.13-.032-.072 0-.13-.015-.13-.033 0-.018-.044-.033-.098-.033-.053 0-.097-.014-.097-.032 0-.018-.074-.033-.163-.033-.09 0-.163-.014-.163-.032 0-.018-.073-.033-.162-.033-.09 0-.163-.014-.163-.032 0-.018-.074-.033-.163-.033-.09 0-.163-.014-.163-.032 0-.02-.108-.033-.26-.033-.152 0-.26-.013-.26-.032C12.172.01 11.759 0 11 0c-.76 0-1.172.011-1.172.033zm2.279.65c0 .02.108.033.26.033.152 0 .26.014.26.033 0 .017.073.032.163.032.09 0 .163.015.163.033 0 .018.073.032.162.032.09 0 .163.015.163.033 0 .018.059.032.13.032.072 0 .13.015.13.033 0 .018.059.032.13.032.072 0 .13.015.13.033 0 .018.045.032.098.032.054 0 .098.015.098.033 0 .018.059.033.13.033.072 0 .13.014.13.032 0 .018.03.033.066.033.035 0 .065.014.065.032 0 .018.044.033.097.033.054 0 .098.014.098.032 0 .018.044.033.098.033.053 0 .097.014.097.032 0 .018.03.033.065.033.036 0 .065.015.065.032 0 .018.044.033.098.033.054 0 .098.015.098.032 0 .018.029.033.065.033.035 0 .065.015.065.033 0 .017.03.032.065.032.036 0 .065.015.065.033 0 .018.03.032.065.032.036 0 .065.015.065.033 0 .018.03.032.065.032.036 0 .065.015.065.033 0 .018.03.032.065.032.036 0 .066.015.066.033 0 .018.029.032.065.032.035 0 .065.015.065.033 0 .018.029.033.065.033.036 0 .065.014.065.032 0 .018.03.033.065.033.036 0 .065.014.065.032 0 .018.026.033.058.033s.079.029.105.065c.026.036.07.065.097.065.028 0 .072.03.098.065.026.036.073.065.105.065s.058.015.058.033c0 .018.023.032.052.032.028 0 .093.044.143.098.05.054.111.097.136.097.025 0 .066.03.092.066.026.035.067.065.09.065.025 0 .101.058.17.13.069.071.142.13.162.13.02 0 .123.088.229.195.105.108.207.196.226.196.045 0 .717.672.717.717 0 .019.088.12.196.226.107.106.195.209.195.229 0 .02.059.093.13.162.072.069.13.145.13.17 0 .023.03.064.065.09.036.026.066.07.066.098 0 .028.029.072.065.097.035.026.065.07.065.098 0 .028.029.072.065.098.036.026.065.07.065.097 0 .028.03.072.065.098.036.026.065.073.065.105s.015.058.033.058c.017 0 .032.026.032.058 0 .031.03.079.065.104.036.026.065.073.065.105s.015.058.033.058c.018 0 .032.03.032.065 0 .036.015.065.033.065.018 0 .032.03.032.065 0 .036.015.066.033.066.018 0 .033.029.033.065 0 .035.014.065.032.065.018 0 .033.029.033.065 0 .036.014.065.032.065.018 0 .033.03.033.065 0 .036.014.065.032.065.018 0 .033.03.033.065 0 .036.015.065.032.065.018 0 .033.03.033.065 0 .036.015.065.032.065.018 0 .033.044.033.098 0 .054.015.098.033.098.018 0 .032.029.032.065 0 .036.015.065.033.065.018 0 .032.044.032.097 0 .054.015.098.033.098.018 0 .032.044.032.098 0 .053.015.097.033.097.018 0 .032.044.032.098 0 .054.015.098.033.098.018 0 .032.044.032.097 0 .054.015.098.033.098.018 0 .033.044.033.098 0 .053.014.097.032.097.018 0 .033.059.033.13 0 .072.014.13.032.13.018 0 .033.06.033.13 0 .072.014.13.032.13.018 0 .033.074.033.164 0 .09.015.162.032.162.018 0 .033.087.033.196 0 .108.014.195.032.195.02 0 .033.108.033.26 0 .152.014.26.033.26.02 0 .032.37.032 1.042 0 .673-.011 1.041-.032 1.041-.02 0-.033.109-.033.26 0 .153-.014.261-.032.261-.019 0-.033.087-.033.195 0 .109-.015.196-.033.196-.017 0-.032.073-.032.162 0 .09-.015.163-.033.163-.018 0-.032.059-.032.13 0 .072-.015.13-.033.13-.018 0-.032.059-.032.13 0 .072-.015.13-.033.13-.018 0-.032.045-.032.098 0 .054-.015.098-.033.098-.018 0-.032.044-.032.098 0 .053-.015.097-.033.097-.018 0-.033.044-.033.098 0 .054-.014.098-.032.098-.018 0-.033.044-.033.097 0 .054-.014.098-.032.098-.018 0-.033.044-.033.098 0 .053-.014.097-.032.097-.018 0-.033.03-.033.065 0 .036-.014.065-.032.065-.018 0-.033.044-.033.098 0 .054-.015.098-.033.098-.017 0-.032.029-.032.065 0 .035-.015.065-.033.065-.017 0-.032.03-.032.065 0 .036-.015.065-.033.065-.018 0-.032.03-.032.065 0 .036-.015.065-.033.065-.018 0-.032.03-.032.065 0 .036-.015.065-.033.065-.018 0-.032.03-.032.065 0 .036-.015.066-.033.066-.018 0-.033.029-.033.065 0 .035-.014.065-.032.065-.018 0-.033.029-.033.065 0 .036-.014.065-.032.065-.018 0-.033.026-.033.058s-.029.079-.065.105c-.036.025-.065.072-.065.104s-.015.058-.032.058c-.018 0-.033.026-.033.058s-.03.08-.065.105c-.036.026-.065.07-.065.098 0 .027-.03.072-.065.097-.036.026-.065.07-.065.098 0 .028-.03.072-.065.098-.036.025-.066.07-.066.097 0 .028-.029.072-.065.098-.035.026-.065.067-.065.09 0 .025-.058.101-.13.17-.071.069-.13.142-.13.162 0 .02-.088.123-.195.229-.108.105-.196.207-.196.226 0 .045-.672.717-.717.717-.019 0-.12.088-.226.196-.106.107-.209.195-.229.195-.02 0-.093.059-.162.13-.069.072-.145.13-.17.13-.023 0-.064.03-.09.066-.026.035-.07.065-.098.065-.028 0-.072.029-.098.065-.025.035-.07.065-.097.065-.028 0-.072.029-.098.065-.026.036-.07.065-.097.065-.028 0-.072.03-.098.065-.026.036-.073.065-.105.065s-.058.015-.058.033c0 .017-.026.032-.058.032s-.079.03-.104.065c-.026.036-.073.065-.105.065s-.058.015-.058.033c0 .018-.03.032-.065.032-.036 0-.065.015-.065.033 0 .018-.03.032-.065.032-.036 0-.066.015-.066.033 0 .018-.029.033-.065.033-.035 0-.065.014-.065.032 0 .018-.029.033-.065.033-.036 0-.065.014-.065.032 0 .018-.03.033-.065.033-.036 0-.065.014-.065.032 0 .018-.03.033-.065.033-.036 0-.065.015-.065.032 0 .018-.03.033-.065.033-.036 0-.065.015-.065.032 0 .018-.044.033-.098.033-.054 0-.098.015-.098.033 0 .018-.029.032-.065.032-.036 0-.065.015-.065.033 0 .018-.044.032-.098.032-.053 0-.097.015-.097.033 0 .018-.044.032-.098.032-.053 0-.097.015-.097.033 0 .018-.044.032-.098.032-.054 0-.098.015-.098.033 0 .018-.044.032-.097.032-.054 0-.098.015-.098.033 0 .018-.044.033-.098.033-.053 0-.097.014-.097.032 0 .018-.059.033-.13.033-.072 0-.13.014-.13.032 0 .018-.06.033-.13.033-.072 0-.13.014-.13.032 0 .018-.074.033-.164.033-.09 0-.162.015-.162.032 0 .018-.087.033-.196.033-.108 0-.195.014-.195.032 0 .02-.098.033-.228.033s-.227.014-.227.033c0 .02-.391.032-1.107.032s-1.107-.011-1.107-.032c0-.02-.108-.033-.26-.033-.152 0-.26-.014-.26-.032 0-.018-.073-.033-.163-.033-.09 0-.163-.015-.163-.033 0-.017-.073-.032-.162-.032-.09 0-.163-.015-.163-.033 0-.018-.059-.032-.13-.032-.072 0-.13-.015-.13-.033 0-.018-.059-.032-.13-.032-.072 0-.13-.015-.13-.033 0-.018-.045-.032-.098-.032-.054 0-.098-.015-.098-.033 0-.018-.059-.032-.13-.032-.072 0-.13-.015-.13-.033 0-.018-.044-.033-.098-.033-.054 0-.098-.014-.098-.032 0-.018-.029-.033-.065-.033-.036 0-.065-.014-.065-.032 0-.018-.044-.033-.098-.033-.053 0-.097-.014-.097-.032 0-.018-.03-.033-.065-.033-.036 0-.065-.014-.065-.032 0-.018-.044-.033-.098-.033-.054 0-.098-.015-.098-.033 0-.017-.029-.032-.065-.032-.035 0-.065-.015-.065-.033 0-.017-.03-.032-.065-.032-.036 0-.065-.015-.065-.033 0-.018-.03-.032-.065-.032-.036 0-.065-.015-.065-.033 0-.018-.03-.032-.065-.032-.036 0-.065-.015-.065-.033 0-.018-.03-.032-.065-.032-.036 0-.065-.015-.065-.033 0-.018-.03-.033-.066-.033-.035 0-.065-.014-.065-.032 0-.018-.029-.033-.065-.033-.036 0-.065-.014-.065-.032 0-.018-.03-.033-.065-.033-.036 0-.065-.014-.065-.032 0-.018-.026-.033-.058-.033s-.079-.029-.105-.065c-.026-.036-.073-.065-.105-.065-.031 0-.057-.015-.057-.032 0-.018-.027-.033-.058-.033-.032 0-.08-.03-.105-.065-.026-.036-.067-.065-.092-.065-.025 0-.086-.044-.136-.098-.05-.053-.111-.098-.136-.098-.025 0-.066-.029-.092-.064-.026-.036-.067-.066-.09-.066-.025 0-.101-.058-.17-.13-.069-.071-.142-.13-.162-.13-.02 0-.109-.073-.196-.163-.087-.09-.174-.162-.194-.162-.045 0-.848-.803-.848-.848 0-.02-.087-.121-.195-.226-.107-.106-.195-.209-.195-.23 0-.02-.044-.078-.098-.128-.053-.05-.097-.11-.097-.13 0-.022-.044-.08-.098-.13-.054-.05-.098-.112-.098-.137 0-.024-.029-.066-.065-.092-.036-.025-.065-.07-.065-.097 0-.028-.03-.072-.065-.098-.036-.026-.065-.073-.065-.105 0-.031-.015-.057-.033-.057-.017 0-.032-.027-.032-.058 0-.032-.03-.08-.065-.105-.036-.026-.065-.073-.065-.105s-.015-.058-.033-.058c-.018 0-.032-.03-.032-.065 0-.036-.015-.065-.033-.065-.018 0-.032-.03-.032-.065 0-.036-.015-.065-.033-.065-.018 0-.033-.026-.033-.058s-.029-.08-.065-.105c-.035-.026-.065-.073-.065-.105s-.014-.058-.032-.058c-.018 0-.033-.044-.033-.097 0-.054-.014-.098-.032-.098-.018 0-.033-.03-.033-.065 0-.036-.015-.065-.032-.065-.018 0-.033-.03-.033-.065 0-.036-.015-.065-.033-.065-.017 0-.032-.03-.032-.066 0-.035-.015-.065-.033-.065-.017 0-.032-.043-.032-.097 0-.054-.015-.098-.033-.098-.018 0-.032-.03-.032-.065 0-.036-.015-.065-.033-.065-.018 0-.032-.044-.032-.098 0-.053-.015-.097-.033-.097-.018 0-.032-.044-.032-.098 0-.054-.015-.098-.033-.098-.018 0-.032-.043-.032-.097 0-.054-.015-.098-.033-.098-.018 0-.033-.058-.033-.13 0-.072-.014-.13-.032-.13-.018 0-.033-.044-.033-.098 0-.053-.014-.097-.032-.097-.018 0-.033-.074-.033-.163 0-.09-.014-.163-.032-.163-.018 0-.033-.059-.033-.13 0-.072-.014-.13-.032-.13-.018 0-.033-.087-.033-.196 0-.108-.014-.195-.032-.195-.02 0-.033-.108-.033-.26 0-.152-.014-.26-.033-.26-.02 0-.032-.391-.032-1.107s.011-1.107.032-1.107c.02 0 .033-.108.033-.26 0-.152.014-.26.033-.26.018 0 .032-.087.032-.195 0-.109.015-.196.033-.196.018 0 .032-.058.032-.13 0-.072.015-.13.033-.13.018 0 .032-.073.032-.163 0-.09.015-.163.033-.163.018 0 .032-.043.032-.097 0-.054.015-.098.033-.098.018 0 .032-.058.032-.13 0-.072.015-.13.033-.13.018 0 .033-.044.033-.098 0-.053.014-.097.032-.097.018 0 .033-.044.033-.098 0-.054.014-.098.032-.098.018 0 .033-.044.033-.097 0-.054.014-.098.032-.098.018 0 .033-.03.033-.065 0-.036.014-.065.032-.065.018 0 .033-.044.033-.098 0-.053.015-.097.032-.097.018 0 .033-.03.033-.066 0-.035.015-.065.032-.065.018 0 .033-.029.033-.065 0-.035.015-.065.033-.065.017 0 .032-.03.032-.065 0-.036.015-.065.033-.065.018 0 .032-.044.032-.098 0-.053.015-.097.033-.097.018 0 .032-.026.032-.058s.03-.08.065-.105c.036-.026.065-.073.065-.105s.015-.058.033-.058c.018 0 .033-.029.033-.065 0-.036.014-.065.032-.065.018 0 .033-.03.033-.065 0-.036.014-.065.032-.065.018 0 .033-.026.033-.058s.029-.079.065-.105c.036-.026.065-.073.065-.105 0-.031.015-.057.032-.057.018 0 .033-.027.033-.058 0-.032.03-.08.065-.105.036-.026.065-.07.065-.098 0-.028.03-.072.065-.097.036-.026.065-.068.065-.092 0-.025.044-.086.098-.136.054-.05.098-.109.098-.13 0-.022.044-.08.097-.13.054-.05.098-.109.098-.13 0-.02.088-.123.195-.229.108-.105.195-.207.195-.226 0-.045.803-.848.848-.848.02 0 .121-.087.226-.195.106-.107.209-.195.23-.195.02 0 .078-.044.128-.098.05-.053.11-.097.13-.097.022 0 .08-.044.13-.098.05-.054.112-.098.137-.098.024 0 .066-.029.092-.065.025-.036.07-.065.097-.065.028 0 .072-.03.098-.065.026-.036.073-.065.105-.065.031 0 .058-.015.058-.033 0-.017.026-.032.057-.032.032 0 .08-.03.105-.065.026-.036.073-.065.105-.065s.058-.015.058-.033c0-.018.03-.032.065-.032.036 0 .065-.015.065-.033 0-.018.03-.032.065-.032.036 0 .065-.015.065-.033 0-.018.03-.033.065-.033.036 0 .066-.014.066-.032 0-.018.026-.033.057-.033.032 0 .08-.029.105-.065a.178.178 0 01.138-.065c.05 0 .09-.014.09-.032 0-.018.03-.033.065-.033.036 0 .065-.015.065-.032 0-.018.03-.033.065-.033.036 0 .065-.015.065-.033 0-.017.03-.032.066-.032.035 0 .065-.015.065-.033 0-.017.044-.032.097-.032.054 0 .098-.015.098-.033 0-.018.044-.032.097-.032.054 0 .098-.015.098-.033 0-.018.03-.032.065-.032.036 0 .065-.015.065-.033 0-.018.044-.032.098-.032.054 0 .098-.015.098-.033 0-.018.043-.032.097-.032.054 0 .098-.015.098-.033 0-.018.058-.033.13-.033.072 0 .13-.014.13-.032 0-.018.059-.033.13-.033.072 0 .13-.014.13-.032 0-.018.06-.033.13-.033.072 0 .13-.014.13-.032 0-.018.074-.033.164-.033.09 0 .162-.014.162-.032 0-.018.074-.033.163-.033.09 0 .163-.015.163-.032 0-.02.108-.033.26-.033.152 0 .26-.014.26-.033 0-.02.391-.032 1.107-.032s1.107.011 1.107.032zm-1.953 1.172c0 .02-.12.033-.293.033-.174 0-.293.013-.293.032 0 .018-.087.033-.195.033-.109 0-.195.014-.195.032 0 .018-.06.033-.13.033-.072 0-.13.014-.13.032 0 .018-.06.033-.131.033-.072 0-.13.014-.13.032 0 .018-.059.033-.13.033-.072 0-.13.015-.13.032 0 .018-.044.033-.098.033-.054 0-.098.015-.098.033 0 .017-.044.032-.097.032-.054 0-.098.015-.098.033 0 .018-.044.032-.098.032-.053 0-.097.015-.097.033 0 .018-.044.032-.098.032-.054 0-.098.015-.098.033 0 .018-.029.032-.065.032-.035 0-.065.015-.065.033 0 .018-.03.032-.065.032-.036 0-.065.015-.065.033 0 .018-.044.033-.098.033-.053 0-.097.014-.097.032 0 .018-.03.033-.065.033-.036 0-.065.014-.065.032 0 .018-.03.033-.066.033-.035 0-.065.014-.065.032 0 .018-.029.033-.065.033-.035 0-.065.014-.065.032 0 .018-.03.033-.065.033-.036 0-.065.015-.065.032 0 .018-.026.033-.058.033s-.079.03-.105.065c-.025.036-.073.065-.104.065-.032 0-.058.015-.058.033 0 .018-.026.032-.058.032s-.08.03-.105.065c-.026.036-.07.065-.098.065-.028 0-.072.03-.097.066-.026.035-.07.065-.098.065-.028 0-.072.029-.098.065-.025.035-.067.065-.091.065-.025 0-.086.044-.136.097-.05.054-.109.098-.13.098-.021 0-.095.059-.163.13-.07.072-.141.13-.16.13-.047 0-1.11 1.063-1.11 1.11 0 .019-.058.09-.13.16-.071.068-.13.142-.13.163 0 .021-.044.08-.098.13-.053.05-.097.11-.097.136 0 .024-.03.066-.065.091-.036.026-.065.073-.065.105 0 .055.067.058 1.106.058.716 0 1.107-.011 1.107-.032 0-.02.18-.033.473-.033.46 0 .476.002.553.08.044.044.08.102.08.13 0 .028.015.05.033.05.018 0 .032.052.032.115 0 .143-.179.341-.308.341-.045 0-.082.015-.082.033 0 .02-.141.032-.358.032s-.358.013-.358.033c0 .018-.059.032-.13.032-.123 0-.13.006-.13.098 0 .053.014.097.032.097.018 0 .032.044.032.098 0 .054.015.098.033.098.018 0 .033.044.033.097 0 .054.014.098.032.098.018 0 .033.044.033.098 0 .053.014.097.032.097.018 0 .033.044.033.098 0 .054.014.097.032.097.018 0 .033.044.033.098 0 .054.014.098.032.098.018 0 .033.044.033.097 0 .054.015.098.032.098.018 0 .033.044.033.098 0 .053.015.097.033.097.017 0 .032.044.032.098 0 .054.015.098.033.098.018 0 .032.043.032.097 0 .054.015.098.033.098.018 0 .032.044.032.097 0 .054.015.098.033.098.018 0 .032.044.032.098 0 .053.015.097.033.097.018 0 .032.03.032.065 0 .036.015.066.033.066.018 0 .033.043.033.097 0 .054.014.098.032.098.018 0 .033.044.033.097 0 .054.014.098.032.098.018 0 .033.044.033.098 0 .053.014.097.032.097.018 0 .033.044.033.098 0 .054.014.098.032.098.018 0 .033.043.033.097 0 .054.015.098.032.098.018 0 .033.044.033.098 0 .053.015.097.033.097.017 0 .032.044.032.098 0 .053.015.097.033.097.018 0 .032.044.032.098 0 .054.015.098.033.098.018 0 .032.044.032.097 0 .054.015.098.033.098.018 0 .032.044.032.098 0 .053.015.097.033.097.018 0 .032.044.032.098 0 .053.015.097.033.097.018 0 .032.044.032.098 0 .054.015.098.033.098.018 0 .033.044.033.097 0 .054.014.098.032.098.018 0 .033.044.033.098 0 .053.014.097.032.097.018 0 .033.044.033.098 0 .054.014.098.032.098.018 0 .033.043.033.097 0 .054.014.098.032.098.018 0 .033.044.033.097 0 .054.015.098.032.098.018 0 .033.044.033.098 0 .053.015.097.033.097.017 0 .032.044.032.098 0 .054.015.098.033.098.018 0 .032.043.032.097 0 .054.015.098.033.098.018 0 .032.044.032.098 0 .053.015.097.033.097.018 0 .032.044.032.098 0 .053.015.097.033.097.018 0 .032.044.032.098 0 .054.015.098.033.098.018 0 .033.044.033.097 0 .054.014.098.032.098.018 0 .033.044.033.097 0 .054.014.098.032.098.018 0 .033.044.033.098 0 .053.014.097.032.097.018 0 .033.044.033.098 0 .054.014.098.032.098.018 0 .033.044.033.097 0 .054.015.098.032.098.018 0 .033.044.033.098 0 .053.015.097.033.097.017 0 .032.044.032.098 0 .054.015.098.033.098.018 0 .032.043.032.097 0 .054.015.098.033.098.018 0 .032.044.032.097 0 .054.015.098.033.098.018 0 .032.044.032.098 0 .053.015.097.033.097.018 0 .032.044.032.098 0 .054.015.098.033.098.018 0 .033.043.033.097 0 .054.014.098.032.098.018 0 .033.044.033.098 0 .053.014.097.032.097.018 0 .033.044.033.098 0 .053.014.097.032.097.018 0 .033.044.033.098 0 .054.014.098.032.098.018 0 .033-.03.033-.066 0-.035.015-.064.032-.064.018 0 .033-.044.033-.098 0-.054.015-.098.033-.098.017 0 .032-.044.032-.097 0-.054.015-.098.033-.098.018 0 .032-.044.032-.098 0-.053.015-.097.033-.097.018 0 .032-.044.032-.098 0-.054.015-.098.033-.098.018 0 .032-.043.032-.097 0-.054.015-.098.033-.098.018 0 .032-.044.032-.098 0-.053.015-.097.033-.097.018 0 .033-.044.033-.098 0-.053.014-.097.032-.097.018 0 .033-.044.033-.098 0-.054.014-.098.032-.098.018 0 .033-.044.033-.097 0-.054.014-.098.032-.098.018 0 .033-.044.033-.098 0-.053.014-.097.032-.097.018 0 .033-.044.033-.098 0-.053.015-.098.032-.098.018 0 .033-.043.033-.097 0-.054.015-.098.033-.098.017 0 .032-.044.032-.097 0-.054.015-.098.033-.098.017 0 .032-.044.032-.098 0-.053.015-.097.033-.097.018 0 .032-.044.032-.098 0-.054.015-.097.033-.097.018 0 .032-.044.032-.098 0-.054.015-.098.033-.098.018 0 .032-.044.032-.097 0-.054.015-.098.033-.098.018 0 .032-.044.032-.098 0-.053.015-.097.033-.097.018 0 .033-.044.033-.098 0-.054.014-.098.032-.098.018 0 .033-.043.033-.097 0-.054.014-.098.032-.098.018 0 .033-.044.033-.098 0-.053.014-.097.032-.097.018 0 .033-.044.033-.098 0-.053.014-.097.032-.097.018 0 .033-.044.033-.098 0-.054.015-.098.033-.098.017 0 .032-.044.032-.097 0-.054.015-.098.033-.098.018 0 .032-.044.032-.098 0-.053.015-.097.033-.097.018 0 .032-.044.032-.098 0-.053.015-.098.033-.098.018 0 .032-.043.032-.097 0-.054.015-.098.033-.098.018 0 .032-.044.032-.097 0-.054.015-.098.033-.098.018 0 .033-.044.033-.098 0-.053.014-.097.032-.097.018 0 .033-.087.033-.195 0-.109-.015-.196-.033-.196-.018 0-.032-.044-.032-.097 0-.054-.015-.098-.033-.098-.018 0-.033-.044-.033-.098 0-.053-.014-.097-.032-.097-.018 0-.033-.03-.033-.065 0-.036-.014-.066-.032-.066-.018 0-.033-.043-.033-.097 0-.054-.014-.098-.032-.098-.018 0-.033-.044-.033-.097 0-.054-.014-.098-.032-.098-.018 0-.033-.044-.033-.098 0-.053-.015-.097-.033-.097-.017 0-.032-.03-.032-.065 0-.036-.015-.065-.033-.065-.018 0-.032-.044-.032-.098 0-.054-.015-.098-.033-.098-.018 0-.032-.044-.032-.097 0-.054-.015-.098-.033-.098-.018 0-.032-.044-.032-.098 0-.053-.015-.097-.033-.097-.018 0-.032-.03-.032-.065 0-.036-.015-.065-.033-.065-.018 0-.033-.044-.033-.098 0-.054-.014-.098-.032-.098-.018 0-.033-.044-.033-.097 0-.054-.014-.098-.032-.098-.018 0-.033-.044-.033-.098 0-.053-.014-.097-.032-.097-.018 0-.033-.03-.033-.065 0-.036-.014-.065-.032-.065-.018 0-.033-.044-.033-.098 0-.054-.015-.098-.032-.098-.018 0-.033-.044-.033-.097 0-.054-.015-.098-.032-.098-.018 0-.033-.03-.033-.065 0-.036-.015-.065-.033-.065-.017 0-.032-.044-.032-.098 0-.053-.015-.097-.033-.097-.018 0-.032-.044-.032-.098 0-.054-.015-.098-.033-.098-.018 0-.032-.029-.032-.065 0-.056-.022-.065-.163-.065-.09 0-.163-.014-.163-.032 0-.02-.13-.033-.325-.033s-.326-.013-.326-.032c0-.018-.037-.033-.082-.033a.279.279 0 01-.163-.08c-.066-.066-.08-.112-.08-.26 0-.1.015-.18.032-.18.018 0 .033-.03.033-.066 0-.043.022-.065.065-.065.036 0 .065-.015.065-.032 0-.02.174-.033.456-.033.282 0 .455.012.455.033 0 .02.586.032 1.693.032 1.106 0 1.692-.011 1.692-.032 0-.02.18-.033.473-.033.46 0 .476.002.554.08.044.044.08.102.08.13 0 .028.014.05.032.05.018 0 .033.052.033.115 0 .143-.18.341-.309.341-.045 0-.082.015-.082.033 0 .02-.14.032-.358.032-.217 0-.358.013-.358.033 0 .018-.058.032-.13.032-.123 0-.13.006-.13.098 0 .053.014.097.032.097.018 0 .033.044.033.098 0 .054.014.098.032.098.018 0 .033.044.033.097 0 .054.015.098.032.098.018 0 .033.044.033.098 0 .053.015.097.033.097.018 0 .032.044.032.098 0 .054.015.097.033.097.018 0 .032.044.032.098 0 .054.015.098.033.098.018 0 .032.044.032.097 0 .054.015.098.033.098.018 0 .032.044.032.098 0 .053.015.097.033.097.018 0 .033.044.033.098 0 .054.014.098.032.098.018 0 .033.043.033.097 0 .054.014.098.032.098.018 0 .033.044.033.097 0 .054.014.098.032.098.018 0 .033.044.033.098 0 .053.014.097.032.097.018 0 .033.044.033.098 0 .054.014.098.032.098.018 0 .033.044.033.097 0 .054.015.098.033.098.017 0 .032.03.032.065 0 .036.015.065.033.065.018 0 .032.044.032.098 0 .053.015.097.033.097.018 0 .032.044.032.098 0 .054.015.098.033.098.018 0 .032.043.032.097 0 .054.015.098.033.098.018 0 .032.044.032.098 0 .053.015.097.033.097.018 0 .033.044.033.098 0 .053.014.097.032.097.018 0 .033.044.033.098 0 .054.014.098.032.098.018 0 .033.044.033.097 0 .054.014.098.032.098.018 0 .033.044.033.098 0 .053.014.097.032.097.018 0 .033.044.033.098 0 .053.014.097.032.097.018 0 .033.044.033.098 0 .054.015.098.032.098.018 0 .033.044.033.097 0 .054.015.098.032.098.018 0 .033.044.033.098 0 .053.015.097.033.097.018 0 .032.044.032.098 0 .054.015.098.033.098.018 0 .032.043.032.097 0 .054.015.098.033.098.018 0 .032.044.032.097 0 .054.015.098.033.098.018 0 .032.044.032.098 0 .053.015.097.033.097.018 0 .032.044.032.098 0 .054.015.098.033.098.018 0 .033.043.033.097 0 .054.014.098.032.098.018 0 .033.044.033.098 0 .053.014.097.032.097.018 0 .033.044.033.098 0 .053.014.097.032.097.018 0 .033.044.033.098 0 .054.014.098.032.098.018 0 .033.044.033.097 0 .054.015.098.033.098.017 0 .032.044.032.097 0 .054.015.098.033.098.018 0 .032.044.032.098 0 .053.015.097.033.097.018 0 .032.044.032.098 0 .054.015.098.033.098.018 0 .032.044.032.097 0 .054.015.098.033.098.018 0 .032.044.032.098 0 .053.015.097.033.097.018 0 .033.044.033.098 0 .054.014.098.032.098.018 0 .033.043.033.097 0 .054.014.098.032.098.018 0 .033.044.033.097 0 .054.014.098.032.098.018 0 .033.044.033.098 0 .053.014.097.032.097.018 0 .033.044.033.098 0 .054.014.098.032.098.018 0 .033.043.033.097 0 .054.015.098.032.098.018 0 .033.044.033.098 0 .053.015.097.033.097.018 0 .032.044.032.098 0 .053.015.097.033.097.018 0 .032.03.032.066 0 .035.015.064.033.064.018 0 .032-.043.032-.097 0-.054.015-.098.033-.098.018 0 .032-.044.032-.097 0-.054.015-.098.033-.098.018 0 .033-.044.033-.098 0-.053.014-.097.032-.097.018 0 .033-.059.033-.13 0-.072.014-.13.032-.13.018 0 .033-.044.033-.098 0-.054.014-.098.032-.098.018 0 .033-.044.033-.098 0-.053.014-.097.032-.097.018 0 .033-.044.033-.098 0-.053.014-.097.032-.097.018 0 .033-.044.033-.098 0-.054.015-.098.032-.098.018 0 .033-.044.033-.097 0-.054.015-.098.033-.098.017 0 .032-.059.032-.13 0-.072.015-.13.033-.13.018 0 .032-.044.032-.098 0-.054.015-.098.033-.098.018 0 .032-.043.032-.097 0-.054.015-.098.033-.098.018 0 .032-.044.032-.098 0-.053.015-.097.033-.097.018 0 .033-.044.033-.098 0-.053.014-.097.032-.097.018 0 .032-.044.032-.098 0-.054.015-.098.033-.098.018 0 .033-.058.033-.13 0-.071.014-.13.032-.13.018 0 .033-.044.033-.098 0-.053.014-.097.032-.097.018 0 .033-.044.033-.098 0-.054.014-.098.032-.098.018 0 .033-.043.033-.097 0-.054.015-.098.032-.098.018 0 .033-.058.033-.13 0-.072.015-.13.032-.13.018 0 .033-.059.033-.13 0-.072.015-.13.033-.13.018 0 .032-.06.032-.13 0-.072.015-.13.033-.13.018 0 .032-.074.032-.164 0-.09.015-.162.033-.162.018 0 .032-.087.032-.196 0-.108.015-.195.033-.195.02 0 .032-.228.032-.618s-.011-.619-.032-.619c-.018 0-.033-.073-.033-.162 0-.09-.014-.163-.032-.163-.018 0-.033-.059-.033-.13 0-.072-.014-.13-.032-.13-.018 0-.033-.044-.033-.098 0-.054-.014-.098-.032-.098-.018 0-.033-.044-.033-.097 0-.054-.015-.098-.032-.098-.018 0-.033-.03-.033-.065 0-.036-.015-.065-.033-.065-.017 0-.032-.044-.032-.098 0-.053-.015-.097-.033-.097-.018 0-.032-.03-.032-.065 0-.036-.015-.065-.033-.065-.018 0-.032-.03-.032-.066 0-.035-.015-.065-.033-.065-.018 0-.032-.026-.032-.058 0-.031-.03-.079-.066-.104-.035-.026-.064-.073-.064-.105s-.015-.058-.033-.058c-.018 0-.033-.026-.033-.058s-.029-.079-.065-.105c-.035-.026-.065-.073-.065-.105 0-.031-.014-.058-.032-.058-.018 0-.033-.026-.033-.057 0-.032-.03-.08-.065-.105-.036-.026-.065-.073-.065-.105s-.015-.058-.033-.058c-.018 0-.032-.03-.032-.065 0-.036-.015-.065-.033-.065-.018 0-.032-.03-.032-.065 0-.036-.015-.065-.033-.065-.018 0-.032-.03-.032-.065 0-.036-.015-.066-.033-.066-.018 0-.032-.029-.032-.065 0-.035-.015-.065-.033-.065-.018 0-.033-.029-.033-.065 0-.036-.014-.065-.032-.065-.018 0-.033-.044-.033-.097 0-.054-.014-.098-.032-.098-.018 0-.033-.044-.033-.098 0-.053-.014-.097-.032-.097-.02 0-.033-.163-.033-.423s.013-.424.033-.424c.018 0 .032-.058.032-.13 0-.071.015-.13.033-.13.018 0 .032-.03.032-.065 0-.036.015-.065.033-.065.018 0 .033-.023.033-.052 0-.029.043-.093.097-.143.054-.05.098-.108.098-.128 0-.055.218-.263.275-.263.028 0 .05-.015.05-.032 0-.018.026-.033.058-.033s.08-.03.105-.065a.178.178 0 01.137-.065c.05 0 .09-.015.09-.033 0-.019.11-.032.261-.032.143 0 .26-.009.26-.019 0-.033-.091-.111-.13-.111-.02 0-.108-.074-.195-.163-.087-.09-.176-.163-.196-.163-.021 0-.08-.044-.13-.097-.05-.054-.11-.098-.136-.098-.024 0-.066-.03-.091-.065-.026-.036-.067-.065-.092-.065-.025 0-.086-.044-.136-.098-.05-.054-.115-.098-.143-.098-.029 0-.052-.014-.052-.032 0-.018-.026-.033-.058-.033s-.08-.029-.105-.065c-.026-.036-.073-.065-.105-.065s-.058-.014-.058-.032c0-.018-.03-.033-.065-.033-.036 0-.065-.015-.065-.032 0-.018-.026-.033-.058-.033s-.079-.03-.105-.065c-.025-.036-.073-.065-.104-.065-.032 0-.058-.015-.058-.033 0-.018-.03-.032-.066-.032-.035 0-.065-.015-.065-.033 0-.018-.043-.032-.097-.032-.054 0-.098-.015-.098-.033 0-.018-.03-.032-.065-.032-.036 0-.065-.015-.065-.033 0-.018-.03-.033-.065-.033-.036 0-.065-.014-.065-.032 0-.018-.044-.033-.098-.033-.053 0-.098-.014-.098-.032 0-.018-.029-.033-.065-.033-.035 0-.065-.014-.065-.032 0-.018-.044-.033-.097-.033-.054 0-.098-.014-.098-.032 0-.018-.044-.033-.098-.033-.053 0-.097-.015-.097-.032 0-.018-.044-.033-.098-.033-.053 0-.097-.015-.097-.033 0-.017-.059-.032-.13-.032-.072 0-.13-.015-.13-.033 0-.018-.06-.032-.131-.032-.072 0-.13-.015-.13-.033 0-.018-.073-.032-.163-.032-.09 0-.163-.015-.163-.033 0-.018-.073-.032-.162-.032-.09 0-.163-.015-.163-.033 0-.019-.109-.032-.26-.032-.152 0-.26-.014-.26-.033 0-.02-.315-.033-.88-.033-.563 0-.878.012-.878.033zm8.917 4.98c0 .07.015.13.033.13.02 0 .032.216.032.585 0 .37-.012.586-.032.586s-.033.109-.033.26c0 .152-.014.26-.033.26-.018 0-.032.088-.032.196 0 .109-.015.195-.033.195-.017 0-.032.059-.032.13 0 .072-.015.13-.033.13-.018 0-.032.06-.032.13 0 .072-.015.131-.033.131-.018 0-.032.059-.032.13 0 .072-.015.13-.033.13-.018 0-.032.044-.032.098 0 .054-.015.098-.033.098-.018 0-.033.044-.033.097 0 .054-.014.098-.032.098-.018 0-.033.044-.033.098 0 .053-.014.097-.032.097-.018 0-.033.044-.033.098 0 .053-.014.098-.032.098-.018 0-.033.029-.033.065 0 .035-.014.065-.032.065-.018 0-.033.044-.033.097 0 .054-.015.098-.032.098-.018 0-.033.044-.033.098 0 .053-.015.097-.032.097-.018 0-.033.044-.033.098 0 .053-.015.097-.033.097-.018 0-.032.044-.032.098 0 .054-.015.098-.033.098-.018 0-.032.044-.032.097 0 .054-.015.098-.033.098-.018 0-.032.044-.032.098 0 .053-.015.097-.033.097-.018 0-.032.03-.032.065 0 .036-.015.065-.033.065-.018 0-.032.044-.032.098 0 .054-.015.098-.033.098-.018 0-.033.044-.033.097 0 .054-.014.098-.032.098-.018 0-.033.044-.033.098 0 .053-.014.097-.032.097-.018 0-.033.044-.033.098 0 .054-.014.098-.032.098-.018 0-.033.043-.033.097 0 .054-.015.098-.032.098-.018 0-.033.044-.033.097 0 .054-.015.098-.032.098-.018 0-.033.044-.033.098 0 .053-.015.097-.033.097-.018 0-.032.044-.032.098 0 .054-.015.098-.033.098-.018 0-.032.044-.032.097 0 .054-.015.098-.033.098-.018 0-.032.03-.032.065 0 .036-.015.065-.033.065-.018 0-.032.044-.032.098 0 .053-.015.097-.033.097-.018 0-.032.044-.032.098 0 .054-.015.098-.033.098-.018 0-.033.043-.033.097 0 .054-.014.098-.032.098-.018 0-.033.044-.033.097 0 .054-.014.098-.032.098-.018 0-.033.044-.033.098 0 .053-.014.097-.032.097-.018 0-.033.044-.033.098 0 .054-.014.098-.032.098-.018 0-.033.043-.033.097 0 .054-.015.098-.032.098-.018 0-.033.044-.033.098 0 .053-.015.097-.033.097-.017 0-.032.03-.032.065 0 .036-.015.065-.033.065-.018 0-.032.044-.032.098 0 .054-.015.098-.033.098-.018 0-.032.043-.032.097 0 .054-.015.098-.033.098-.018 0-.032.044-.032.098 0 .053-.015.097-.033.097-.018 0-.033.044-.033.098 0 .053-.014.097-.032.097-.018 0-.032.044-.032.098 0 .054-.015.098-.033.098-.018 0-.033.044-.033.097 0 .054-.014.098-.032.098-.018 0-.033.044-.033.098 0 .053-.014.097-.032.097-.018 0-.033.044-.033.098 0 .054-.014.097-.032.097-.018 0-.033.03-.033.066 0 .035-.015.065-.032.065-.018 0-.033.044-.033.097 0 .054-.015.098-.032.098-.018 0-.033.044-.033.098 0 .053-.015.097-.033.097-.018 0-.032.044-.032.098 0 .053-.015.097-.033.097-.018 0-.032.044-.032.098 0 .054-.015.098-.033.098-.018 0-.032.044-.032.097 0 .054-.015.098-.033.098-.018 0-.032.044-.032.098 0 .053-.015.097-.033.097-.018 0-.033.044-.033.098 0 .054-.014.098-.032.098-.018 0-.033.042-.033.094 0 .053-.018.102-.04.11-.023.008-.03.026-.017.04.014.015.052-.005.085-.044.034-.039.085-.07.114-.07.03 0 .054-.015.054-.033 0-.018.026-.032.058-.032.031 0 .079-.03.104-.066.026-.035.067-.065.092-.065.025 0 .086-.043.136-.097.05-.054.109-.098.13-.098.022 0 .08-.044.13-.098.05-.053.109-.097.13-.097.021 0 .095-.059.163-.13.07-.072.141-.13.16-.13.047 0 .98-.933.98-.98 0-.019.058-.09.13-.16.071-.068.13-.142.13-.163 0-.021.044-.08.098-.13.053-.05.097-.108.097-.13 0-.021.044-.08.098-.13.053-.05.097-.114.097-.143 0-.029.015-.052.033-.052.018 0 .032-.026.032-.058s.03-.079.066-.105c.035-.026.065-.07.065-.097 0-.028.029-.072.065-.098.035-.026.065-.073.065-.105s.015-.058.032-.058c.018 0 .033-.03.033-.065 0-.036.015-.065.032-.065.018 0 .033-.03.033-.065 0-.036.015-.065.033-.065.017 0 .032-.03.032-.065 0-.036.015-.065.033-.065.017 0 .032-.03.032-.065 0-.036.015-.066.033-.066.018 0 .032-.029.032-.065 0-.035.015-.065.033-.065.018 0 .032-.029.032-.065 0-.036.015-.065.033-.065.018 0 .032-.03.032-.065 0-.036.015-.065.033-.065.018 0 .033-.03.033-.065 0-.036.014-.065.032-.065.018 0 .033-.044.033-.098 0-.053.014-.098.032-.098.018 0 .033-.043.033-.097 0-.054.014-.098.032-.098.018 0 .033-.029.033-.065 0-.036.014-.065.032-.065.018 0 .033-.044.033-.098 0-.053.014-.097.032-.097.018 0 .033-.059.033-.13 0-.072.015-.13.033-.13.017 0 .032-.044.032-.098 0-.054.015-.098.033-.098.017 0 .032-.073.032-.162 0-.09.015-.163.033-.163.018 0 .032-.059.032-.13 0-.072.015-.13.033-.13.018 0 .032-.087.032-.196 0-.108.015-.195.033-.195.02 0 .032-.12.032-.293 0-.174.014-.293.033-.293.02 0 .032-.282.032-.781 0-.499-.011-.781-.032-.781-.02 0-.033-.12-.033-.293 0-.174-.013-.293-.032-.293-.018 0-.033-.087-.033-.195 0-.109-.014-.195-.032-.195-.018 0-.033-.074-.033-.163 0-.09-.014-.163-.032-.163-.018 0-.033-.058-.033-.13 0-.072-.015-.13-.032-.13-.018 0-.033-.044-.033-.098 0-.054-.015-.097-.032-.097-.018 0-.033-.059-.033-.13 0-.072-.015-.13-.033-.13-.018 0-.032-.045-.032-.098 0-.054-.015-.098-.033-.098-.018 0-.032-.03-.032-.065 0-.036-.015-.065-.033-.065-.018 0-.032-.044-.032-.098 0-.054-.015-.098-.033-.098-.018 0-.032-.043-.032-.097 0-.054-.015-.098-.033-.098-.018 0-.032-.03-.032-.065 0-.036-.015-.065-.033-.065-.018 0-.033-.03-.033-.065 0-.036-.014-.065-.032-.065-.018 0-.033-.04-.033-.09a.178.178 0 00-.065-.138c-.035-.026-.065-.073-.065-.105s-.015-.058-.032-.058c-.018 0-.033-.029-.033-.065 0-.036-.015-.065-.032-.065-.018 0-.033.059-.033.13zM2.538 7.42c0 .036-.014.065-.032.065-.018 0-.033.03-.033.065 0 .036-.014.065-.032.065-.018 0-.033.044-.033.098 0 .054-.014.098-.032.098-.018 0-.033.044-.033.097 0 .054-.014.098-.032.098-.018 0-.033.044-.033.098 0 .053-.015.097-.032.097-.018 0-.033.044-.033.098 0 .054-.015.097-.033.097-.017 0-.032.059-.032.13 0 .072-.015.13-.033.13-.018 0-.032.06-.032.131 0 .072-.015.13-.033.13-.018 0-.032.059-.032.13 0 .072-.015.13-.033.13-.018 0-.032.087-.032.196 0 .108-.015.195-.033.195-.019 0-.032.109-.032.26 0 .152-.014.26-.033.26-.02 0-.033.326-.033.912 0 .586.012.911.033.911.019 0 .033.109.033.26 0 .152.013.261.032.261.018 0 .033.073.033.163 0 .09.014.162.032.162.018 0 .033.074.033.163 0 .09.014.163.032.163.018 0 .033.058.033.13 0 .072.014.13.032.13.018 0 .033.059.033.13 0 .072.015.13.032.13.018 0 .033.045.033.098 0 .054.015.098.033.098.017 0 .032.044.032.098 0 .053.015.097.033.097.018 0 .032.044.032.098 0 .053.015.097.033.097.018 0 .032.03.032.065 0 .036.015.066.033.066.018 0 .032.043.032.097 0 .054.015.098.033.098.018 0 .032.03.032.065 0 .036.015.065.033.065.018 0 .033.044.033.098 0 .053.014.097.032.097.018 0 .033.03.033.065 0 .036.014.065.032.065.018 0 .033.03.033.066 0 .035.014.065.032.065.018 0 .033.029.033.065 0 .035.014.065.032.065.018 0 .033.03.033.065 0 .036.015.065.032.065.018 0 .033.026.033.058s.03.079.065.105c.036.026.065.073.065.105 0 .031.015.057.033.057.018 0 .032.027.032.058 0 .032.03.08.065.105.036.026.065.07.065.098 0 .028.03.072.066.097.035.026.065.07.065.098 0 .028.029.072.065.098.035.026.065.067.065.091 0 .025.044.086.097.137.054.05.098.108.098.129 0 .021.059.095.13.163.072.07.13.141.13.16 0 .047.998 1.044 1.044 1.044.019 0 .106.074.193.163.087.09.176.163.196.163.021 0 .08.044.13.098.05.053.11.097.136.097.024 0 .066.03.091.065.026.036.07.065.098.065.028 0 .072.03.098.066.025.035.073.065.104.065.032 0 .058.014.058.032 0 .018.026.033.058.033s.08.029.105.065c.026.035.073.065.105.065s.058.015.058.032c0 .018.03.033.065.033.036 0 .065.015.065.032 0 .018.026.033.058.033s.079.03.105.065c.025.036.073.065.105.065.031 0 .057.015.057.033 0 .018.015.032.033.032.018 0 .032-.029.032-.065 0-.036-.014-.065-.032-.065-.018 0-.033-.044-.033-.098 0-.053-.014-.097-.032-.097-.018 0-.033-.03-.033-.065 0-.036-.014-.065-.032-.065-.018 0-.033-.044-.033-.098 0-.054-.014-.098-.032-.098-.018 0-.033-.043-.033-.097 0-.054-.014-.098-.032-.098-.018 0-.033-.044-.033-.098 0-.053-.015-.097-.032-.097-.018 0-.033-.03-.033-.065 0-.036-.015-.065-.033-.065-.017 0-.032-.044-.032-.098 0-.054-.015-.098-.033-.098-.018 0-.032-.044-.032-.097 0-.054-.015-.098-.033-.098-.018 0-.032-.044-.032-.098 0-.053-.015-.097-.033-.097-.018 0-.032-.03-.032-.065 0-.036-.015-.065-.033-.065-.018 0-.032-.044-.032-.098 0-.054-.015-.098-.033-.098-.018 0-.033-.043-.033-.097 0-.054-.014-.098-.032-.098-.018 0-.033-.044-.033-.098 0-.053-.014-.097-.032-.097-.018 0-.033-.03-.033-.065 0-.036-.014-.065-.032-.065-.018 0-.033-.044-.033-.098 0-.054-.014-.098-.032-.098-.018 0-.033-.043-.033-.097 0-.054-.015-.098-.032-.098-.018 0-.033-.03-.033-.065 0-.036-.015-.065-.033-.065-.017 0-.032-.044-.032-.098 0-.053-.015-.097-.033-.097-.018 0-.032-.044-.032-.098 0-.054-.015-.098-.033-.098-.018 0-.032-.043-.032-.097 0-.054-.015-.098-.033-.098-.018 0-.032-.03-.032-.065 0-.036-.015-.065-.033-.065-.018 0-.032-.044-.032-.098 0-.053-.015-.097-.033-.097-.018 0-.033-.044-.033-.098 0-.054-.014-.097-.032-.097-.018 0-.033-.044-.033-.098 0-.054-.014-.098-.032-.098-.018 0-.033-.03-.033-.065 0-.036-.014-.065-.032-.065-.018 0-.033-.044-.033-.098 0-.053-.014-.097-.032-.097-.018 0-.033-.044-.033-.098 0-.053-.015-.098-.032-.098-.018 0-.033-.043-.033-.097 0-.054-.015-.098-.033-.098-.017 0-.032-.029-.032-.065 0-.036-.015-.065-.033-.065-.018 0-.032-.044-.032-.098 0-.053-.015-.097-.033-.097-.018 0-.032-.044-.032-.098 0-.053-.015-.097-.033-.097-.018 0-.032-.044-.032-.098 0-.054-.015-.098-.033-.098-.018 0-.032-.029-.032-.065 0-.036-.015-.065-.033-.065-.018 0-.033-.044-.033-.098 0-.053-.014-.097-.032-.097-.018 0-.033-.044-.033-.098 0-.053-.014-.097-.032-.097-.018 0-.033-.044-.033-.098 0-.054-.014-.098-.032-.098-.018 0-.033-.029-.033-.065 0-.036-.014-.065-.032-.065-.018 0-.033-.044-.033-.098 0-.053-.015-.097-.032-.097-.018 0-.033-.044-.033-.098 0-.053-.015-.097-.033-.097-.017 0-.032-.03-.032-.066 0-.035-.015-.065-.033-.065-.018 0-.032-.043-.032-.097 0-.054-.015-.098-.033-.098-.018 0-.032-.044-.032-.098 0-.053-.015-.097-.033-.097-.018 0-.032-.044-.032-.098 0-.053-.015-.097-.033-.097-.018 0-.032-.03-.032-.066 0-.035-.015-.065-.033-.065-.018 0-.032-.043-.032-.097 0-.054-.015-.098-.033-.098-.018 0-.033-.044-.033-.098 0-.053-.014-.097-.032-.097-.018 0-.033-.044-.033-.098 0-.053-.014-.097-.032-.097-.018 0-.033-.03-.033-.065 0-.036-.014-.066-.032-.066-.018 0-.033-.043-.033-.097 0-.054-.014-.098-.032-.098-.018 0-.033-.044-.033-.097 0-.054-.015-.098-.032-.098-.018 0-.033-.044-.033-.098 0-.053-.015-.097-.033-.097-.017 0-.032-.03-.032-.065 0-.036-.015-.066-.033-.066-.018 0-.032-.043-.032-.097 0-.054-.015-.098-.033-.098-.018 0-.032-.044-.032-.097 0-.054-.015-.098-.033-.098-.018 0-.032-.044-.032-.098 0-.053-.015-.097-.033-.097-.018 0-.032-.03-.032-.065 0-.036-.015-.065-.033-.065-.018 0-.033-.044-.033-.098 0-.054-.014-.098-.032-.098-.018 0-.033-.044-.033-.097 0-.054-.014-.098-.032-.098-.018 0-.033-.044-.033-.098 0-.053-.014-.097-.032-.097-.018 0-.033-.03-.033-.065 0-.036-.014-.065-.032-.065-.018 0-.033-.044-.033-.098 0-.054-.015-.098-.032-.098-.018 0-.033-.044-.033-.097 0-.054-.015-.098-.033-.098-.017 0-.032-.03-.032-.065 0-.036-.015-.065-.033-.065-.018 0-.032-.044-.032-.098 0-.053-.015-.097-.033-.097-.018 0-.032-.044-.032-.098 0-.054-.015-.098-.033-.098-.018 0-.032-.044-.032-.097 0-.076-.015-.098-.065-.098-.044 0-.066.022-.066.065zm8.592 4.491c0 .036-.014.065-.032.065-.018 0-.033.044-.033.098 0 .054-.015.098-.032.098-.018 0-.033.043-.033.097 0 .054-.015.098-.033.098-.017 0-.032.044-.032.097 0 .054-.015.098-.033.098-.018 0-.032.044-.032.098 0 .053-.015.097-.033.097-.018 0-.032.044-.032.098 0 .054-.015.098-.033.098-.018 0-.032.044-.032.097 0 .054-.015.098-.033.098-.018 0-.032.03-.032.065 0 .036-.015.065-.033.065-.018 0-.032.044-.032.098 0 .053-.015.097-.033.097-.018 0-.033.044-.033.098 0 .054-.014.098-.032.098-.018 0-.033.044-.033.097 0 .054-.014.098-.032.098-.018 0-.033.044-.033.097 0 .054-.014.098-.032.098-.018 0-.033.044-.033.098 0 .053-.014.097-.032.097-.018 0-.033.044-.033.098 0 .054-.015.098-.033.098-.017 0-.032.044-.032.097 0 .054-.015.098-.033.098-.018 0-.032.044-.032.098 0 .053-.015.097-.033.097-.018 0-.032.044-.032.098 0 .054-.015.098-.033.098-.018 0-.032.029-.032.065 0 .035-.015.065-.033.065-.018 0-.032.044-.032.097 0 .054-.015.098-.033.098-.018 0-.033.044-.033.098 0 .053-.014.097-.032.097-.018 0-.033.044-.033.098 0 .053-.014.098-.032.098-.018 0-.033.043-.033.097 0 .054-.014.098-.032.098-.018 0-.033.044-.033.097 0 .054-.014.098-.032.098-.018 0-.033.044-.033.098 0 .053-.015.097-.032.097-.018 0-.033.044-.033.098 0 .054-.015.098-.032.098-.018 0-.033.043-.033.097 0 .054-.015.098-.033.098-.017 0-.032.044-.032.097 0 .054-.015.098-.033.098-.018 0-.032.044-.032.098 0 .053-.015.097-.033.097-.018 0-.032.03-.032.065 0 .036-.015.066-.033.066-.018 0-.032.044-.032.097 0 .054-.015.098-.033.098-.018 0-.032.044-.032.097 0 .054-.015.098-.033.098-.018 0-.033.044-.033.098 0 .053-.014.097-.032.097-.018 0-.033.044-.033.098 0 .054-.014.098-.032.098-.018 0-.033.043-.033.097 0 .054-.014.098-.032.098-.018 0-.033.044-.033.098 0 .053-.014.097-.032.097-.018 0-.033.044-.033.098 0 .053-.015.097-.032.097-.018 0-.033.044-.033.098 0 .054-.015.098-.033.098-.017 0-.032.044-.032.097 0 .054-.015.098-.033.098-.018 0-.032.044-.032.098 0 .053-.015.097-.033.097-.018 0-.032.03-.032.065 0 .036-.015.065-.033.065-.018 0-.032.044-.032.098 0 .054-.015.098-.033.098-.018 0-.032.042-.032.095 0 .052-.019.1-.04.108-.068.022.056.122.151.122.046 0 .084.015.084.033 0 .017.058.032.13.032.072 0 .13.015.13.033 0 .018.073.032.163.032.09 0 .163.015.163.033 0 .018.086.032.195.032.108 0 .195.015.195.033 0 .019.109.032.26.032.152 0 .26.014.26.033 0 .02.305.032.847.032s.846-.011.846-.032c0-.019.109-.033.26-.033.152 0 .26-.013.26-.032 0-.018.088-.033.196-.033.109 0 .195-.014.195-.032 0-.018.074-.033.163-.033.09 0 .163-.014.163-.032 0-.018.058-.033.13-.033.072 0 .13-.015.13-.032 0-.018.044-.033.098-.033.053 0 .098-.015.098-.032 0-.018.043-.033.097-.033.054 0 .098-.015.098-.033 0-.018.058-.032.13-.032.123 0 .13-.006.13-.098 0-.053-.015-.097-.033-.097-.017 0-.032-.044-.032-.098 0-.054-.015-.098-.033-.098-.017 0-.032-.044-.032-.097 0-.054-.015-.098-.033-.098-.018 0-.032-.044-.032-.098 0-.053-.015-.097-.033-.097-.018 0-.032-.03-.032-.065 0-.036-.015-.065-.033-.065-.018 0-.032-.044-.032-.098 0-.054-.015-.098-.033-.098-.018 0-.032-.043-.032-.097 0-.054-.015-.098-.033-.098-.018 0-.032-.044-.032-.098 0-.053-.015-.097-.033-.097-.018 0-.033-.03-.033-.065 0-.036-.014-.065-.032-.065-.018 0-.033-.044-.033-.098 0-.054-.014-.098-.032-.098-.018 0-.033-.044-.033-.097 0-.054-.014-.098-.032-.098-.018 0-.033-.044-.033-.098 0-.053-.014-.097-.032-.097-.018 0-.033-.03-.033-.065 0-.036-.015-.065-.032-.065-.018 0-.033-.044-.033-.098 0-.054-.015-.098-.033-.098-.018 0-.032-.043-.032-.097 0-.054-.015-.098-.033-.098-.018 0-.032-.044-.032-.098 0-.053-.015-.097-.033-.097-.018 0-.032-.03-.032-.065 0-.036-.015-.065-.033-.065-.018 0-.032-.044-.032-.098 0-.054-.015-.098-.033-.098-.018 0-.033-.043-.033-.097 0-.054-.014-.098-.032-.098-.018 0-.033-.03-.033-.065 0-.036-.014-.065-.032-.065-.018 0-.033-.044-.033-.098 0-.053-.014-.097-.032-.097-.018 0-.033-.044-.033-.098 0-.054-.014-.098-.032-.098-.018 0-.033-.043-.033-.097 0-.054-.014-.098-.032-.098-.018 0-.033-.03-.033-.065 0-.036-.015-.065-.033-.065-.017 0-.032-.044-.032-.098 0-.053-.015-.097-.033-.097-.017 0-.032-.044-.032-.098 0-.054-.015-.097-.033-.097-.018 0-.032-.044-.032-.098 0-.054-.015-.098-.033-.098-.018 0-.032-.03-.032-.065 0-.036-.015-.065-.033-.065-.018 0-.032-.044-.032-.098 0-.053-.015-.097-.033-.097-.018 0-.032-.044-.032-.098 0-.053-.015-.098-.033-.098-.018 0-.033-.043-.033-.097 0-.054-.014-.098-.032-.098-.018 0-.033-.029-.033-.065 0-.036-.014-.065-.032-.065-.018 0-.033-.044-.033-.098 0-.053-.014-.097-.032-.097-.018 0-.033-.044-.033-.098 0-.053-.014-.097-.032-.097-.018 0-.033-.044-.033-.098 0-.054-.015-.098-.033-.098-.017 0-.032-.029-.032-.065 0-.036-.015-.065-.033-.065-.018 0-.032-.044-.032-.098 0-.053-.015-.097-.033-.097-.018 0-.032-.044-.032-.098 0-.053-.015-.097-.033-.097-.018 0-.032-.044-.032-.098 0-.054-.015-.098-.033-.098-.018 0-.032-.029-.032-.065 0-.036-.015-.065-.033-.065-.018 0-.033-.044-.033-.098 0-.053-.014-.097-.032-.097-.018 0-.033-.044-.033-.098 0-.053-.014-.097-.032-.097-.018 0-.033-.03-.033-.066 0-.035-.014-.065-.032-.065-.018 0-.033-.043-.033-.097 0-.054-.014-.098-.032-.098-.018 0-.033.03-.033.065z"
    fill="currentColor"
  />
</svg>